# Blender v2.79 (sub 0) OBJ File: 'serverrackGlow.blend'
# www.blender.org
mtllib serverrackGlow.mtl
o Rack_Cube.001
v -0.400000 0.200000 0.800000
v -0.400000 5.800000 0.800000
v -0.400000 0.200000 -0.800000
v -0.400000 5.800000 -0.800000
v -1.000000 0.000000 1.000000
v -1.000000 6.000000 1.000000
v -1.000000 0.000000 -1.000000
v -1.000000 6.000000 -1.000000
v 1.000000 0.000000 1.000000
v 1.000000 6.000000 1.000000
v 1.000000 0.000000 -1.000000
v 1.000000 6.000000 -1.000000
v 1.000000 5.800000 -0.800000
v 1.000000 0.200000 0.800000
v 1.000000 5.800000 0.800000
v 1.000000 5.400000 0.800000
v 1.000000 0.200000 -0.800000
vn 1.0000 0.0000 0.0000
vn 0.0000 0.0000 1.0000
vn 0.0000 1.0000 0.0000
vn -1.0000 0.0000 0.0000
vn 0.0000 0.0000 -1.0000
vn 0.0000 -1.0000 0.0000
usemtl Black_Metal
s off
f 1//1 3//1 4//1 2//1
f 3//2 17//2 13//2 4//2
f 3//3 1//3 14//3 17//3
f 5//4 6//4 8//4 7//4
f 7//5 8//5 12//5 11//5
f 11//1 12//1 13//1 17//1 14//1 16//1 10//1 9//1
f 9//2 10//2 6//2 5//2
f 7//6 11//6 9//6 5//6
f 12//3 8//3 6//3 10//3
f 10//1 16//1 15//1 13//1 12//1
f 14//5 1//5 2//5 15//5 16//5
f 15//6 2//6 4//6 13//6
o Glass_Cube.033
v 0.753272 0.200000 0.900000
v 0.753272 5.800000 0.900000
v 0.753272 0.200000 -0.900000
v 0.753272 5.800000 -0.900000
v 0.953272 0.200000 0.900000
v 0.953272 5.800000 0.900000
v 0.953272 0.200000 -0.900000
v 0.953272 5.800000 -0.900000
vn -1.0000 0.0000 0.0000
vn 0.0000 0.0000 -1.0000
vn 1.0000 0.0000 0.0000
vn 0.0000 0.0000 1.0000
vn 0.0000 -1.0000 0.0000
vn 0.0000 1.0000 0.0000
usemtl Glass
s off
f 18//7 19//7 21//7 20//7
f 20//8 21//8 25//8 24//8
f 24//9 25//9 23//9 22//9
f 22//10 23//10 19//10 18//10
f 20//11 24//11 22//11 18//11
f 25//12 21//12 19//12 23//12
o Server.008_Server.009
v -0.399902 5.000000 0.750000
v -0.399902 5.400000 0.750000
v -0.399902 5.000000 -0.750000
v -0.399902 5.400000 -0.750000
v 0.399903 5.000000 0.750000
v 0.399903 5.400000 0.750000
v 0.399903 5.000000 -0.750000
v 0.399903 5.400000 -0.750000
vn -1.0000 0.0000 0.0000
vn 0.0000 0.0000 -1.0000
vn 1.0000 0.0000 0.0000
vn 0.0000 0.0000 1.0000
vn 0.0000 -1.0000 0.0000
vn 0.0000 1.0000 0.0000
usemtl Material.002
s off
f 26//13 27//13 29//13 28//13
f 28//14 29//14 33//14 32//14
f 32//15 33//15 31//15 30//15
f 30//16 31//16 27//16 26//16
f 28//17 32//17 30//17 26//17
f 33//18 29//18 27//18 31//18
o Light.008_Cube.032
v 0.250000 5.150000 -0.548878
v 0.250000 5.250000 -0.548878
v 0.250000 5.150000 -0.648878
v 0.250000 5.250000 -0.648878
v 0.450000 5.150000 -0.548878
v 0.450000 5.250000 -0.548878
v 0.450000 5.150000 -0.648878
v 0.450000 5.250000 -0.648878
vn -1.0000 0.0000 0.0000
vn 0.0000 0.0000 -1.0000
vn 1.0000 0.0000 0.0000
vn 0.0000 0.0000 1.0000
vn 0.0000 -1.0000 0.0000
vn 0.0000 1.0000 0.0000
usemtl Material.003
s off
f 34//19 35//19 37//19 36//19
f 36//20 37//20 41//20 40//20
f 40//21 41//21 39//21 38//21
f 38//22 39//22 35//22 34//22
f 36//23 40//23 38//23 34//23
f 41//24 37//24 35//24 39//24
o Drive.008_Cube.031
v 0.250000 5.150000 0.300000
v 0.250000 5.250000 0.300000
v 0.250000 5.150000 -0.300000
v 0.250000 5.250000 -0.300000
v 0.450000 5.150000 0.300000
v 0.450000 5.250000 0.300000
v 0.450000 5.150000 -0.300000
v 0.450000 5.250000 -0.300000
vn -1.0000 0.0000 0.0000
vn 0.0000 0.0000 -1.0000
vn 1.0000 0.0000 0.0000
vn 0.0000 0.0000 1.0000
vn 0.0000 -1.0000 0.0000
vn 0.0000 1.0000 0.0000
usemtl Black_Metal
s off
f 42//25 43//25 45//25 44//25
f 44//26 45//26 49//26 48//26
f 48//27 49//27 47//27 46//27
f 46//28 47//28 43//28 42//28
f 44//29 48//29 46//29 42//29
f 49//30 45//30 43//30 47//30
o Server.007_Server.008
v -0.399902 4.400000 0.750000
v -0.399902 4.800000 0.750000
v -0.399902 4.400000 -0.750000
v -0.399902 4.800000 -0.750000
v 0.399903 4.400000 0.750000
v 0.399903 4.800000 0.750000
v 0.399903 4.400000 -0.750000
v 0.399903 4.800000 -0.750000
vn -1.0000 0.0000 0.0000
vn 0.0000 0.0000 -1.0000
vn 1.0000 0.0000 0.0000
vn 0.0000 0.0000 1.0000
vn 0.0000 -1.0000 0.0000
vn 0.0000 1.0000 0.0000
usemtl Material.002
s off
f 50//31 51//31 53//31 52//31
f 52//32 53//32 57//32 56//32
f 56//33 57//33 55//33 54//33
f 54//34 55//34 51//34 50//34
f 52//35 56//35 54//35 50//35
f 57//36 53//36 51//36 55//36
o Drive.007_Cube.030
v 0.250000 4.550000 0.300000
v 0.250000 4.650000 0.300000
v 0.250000 4.550000 -0.300000
v 0.250000 4.650000 -0.300000
v 0.450000 4.550000 0.300000
v 0.450000 4.650000 0.300000
v 0.450000 4.550000 -0.300000
v 0.450000 4.650000 -0.300000
vn -1.0000 0.0000 0.0000
vn 0.0000 0.0000 -1.0000
vn 1.0000 0.0000 0.0000
vn 0.0000 0.0000 1.0000
vn 0.0000 -1.0000 0.0000
vn 0.0000 1.0000 0.0000
usemtl Black_Metal
s off
f 58//37 59//37 61//37 60//37
f 60//38 61//38 65//38 64//38
f 64//39 65//39 63//39 62//39
f 62//40 63//40 59//40 58//40
f 60//41 64//41 62//41 58//41
f 65//42 61//42 59//42 63//42
o Light.007_Cube.029
v 0.250000 4.550000 -0.548878
v 0.250000 4.650000 -0.548878
v 0.250000 4.550000 -0.648878
v 0.250000 4.650000 -0.648878
v 0.450000 4.550000 -0.548878
v 0.450000 4.650000 -0.548878
v 0.450000 4.550000 -0.648878
v 0.450000 4.650000 -0.648878
vn -1.0000 0.0000 0.0000
vn 0.0000 0.0000 -1.0000
vn 1.0000 0.0000 0.0000
vn 0.0000 0.0000 1.0000
vn 0.0000 -1.0000 0.0000
vn 0.0000 1.0000 0.0000
usemtl Material.003
s off
f 66//43 67//43 69//43 68//43
f 68//44 69//44 73//44 72//44
f 72//45 73//45 71//45 70//45
f 70//46 71//46 67//46 66//46
f 68//47 72//47 70//47 66//47
f 73//48 69//48 67//48 71//48
o Server.006_Server.007
v -0.399902 3.800000 0.750000
v -0.399902 4.200000 0.750000
v -0.399902 3.800000 -0.750000
v -0.399902 4.200000 -0.750000
v 0.399903 3.800000 0.750000
v 0.399903 4.200000 0.750000
v 0.399903 3.800000 -0.750000
v 0.399903 4.200000 -0.750000
vn -1.0000 0.0000 0.0000
vn 0.0000 0.0000 -1.0000
vn 1.0000 0.0000 0.0000
vn 0.0000 0.0000 1.0000
vn 0.0000 -1.0000 0.0000
vn 0.0000 1.0000 0.0000
usemtl Material.002
s off
f 74//49 75//49 77//49 76//49
f 76//50 77//50 81//50 80//50
f 80//51 81//51 79//51 78//51
f 78//52 79//52 75//52 74//52
f 76//53 80//53 78//53 74//53
f 81//54 77//54 75//54 79//54
o Light.006_Cube.028
v 0.250000 3.950000 -0.548878
v 0.250000 4.050000 -0.548878
v 0.250000 3.950000 -0.648878
v 0.250000 4.050000 -0.648878
v 0.450000 3.950000 -0.548878
v 0.450000 4.050000 -0.548878
v 0.450000 3.950000 -0.648878
v 0.450000 4.050000 -0.648878
vn -1.0000 0.0000 0.0000
vn 0.0000 0.0000 -1.0000
vn 1.0000 0.0000 0.0000
vn 0.0000 0.0000 1.0000
vn 0.0000 -1.0000 0.0000
vn 0.0000 1.0000 0.0000
usemtl Material.003
s off
f 82//55 83//55 85//55 84//55
f 84//56 85//56 89//56 88//56
f 88//57 89//57 87//57 86//57
f 86//58 87//58 83//58 82//58
f 84//59 88//59 86//59 82//59
f 89//60 85//60 83//60 87//60
o Drive.006_Cube.027
v 0.250000 3.950000 0.300000
v 0.250000 4.050000 0.300000
v 0.250000 3.950000 -0.300000
v 0.250000 4.050000 -0.300000
v 0.450000 3.950000 0.300000
v 0.450000 4.050000 0.300000
v 0.450000 3.950000 -0.300000
v 0.450000 4.050000 -0.300000
vn -1.0000 0.0000 0.0000
vn 0.0000 0.0000 -1.0000
vn 1.0000 0.0000 0.0000
vn 0.0000 0.0000 1.0000
vn 0.0000 -1.0000 0.0000
vn 0.0000 1.0000 0.0000
usemtl Black_Metal
s off
f 90//61 91//61 93//61 92//61
f 92//62 93//62 97//62 96//62
f 96//63 97//63 95//63 94//63
f 94//64 95//64 91//64 90//64
f 92//65 96//65 94//65 90//65
f 97//66 93//66 91//66 95//66
o Server.005_Server.006
v -0.399902 3.200000 0.750000
v -0.399902 3.600000 0.750000
v -0.399902 3.200000 -0.750000
v -0.399902 3.600000 -0.750000
v 0.399903 3.200000 0.750000
v 0.399903 3.600000 0.750000
v 0.399903 3.200000 -0.750000
v 0.399903 3.600000 -0.750000
vn -1.0000 0.0000 0.0000
vn 0.0000 0.0000 -1.0000
vn 1.0000 0.0000 0.0000
vn 0.0000 0.0000 1.0000
vn 0.0000 -1.0000 0.0000
vn 0.0000 1.0000 0.0000
usemtl Material.002
s off
f 98//67 99//67 101//67 100//67
f 100//68 101//68 105//68 104//68
f 104//69 105//69 103//69 102//69
f 102//70 103//70 99//70 98//70
f 100//71 104//71 102//71 98//71
f 105//72 101//72 99//72 103//72
o Drive.005_Cube.026
v 0.250000 3.350000 0.300000
v 0.250000 3.450000 0.300000
v 0.250000 3.350000 -0.300000
v 0.250000 3.450000 -0.300000
v 0.450000 3.350000 0.300000
v 0.450000 3.450000 0.300000
v 0.450000 3.350000 -0.300000
v 0.450000 3.450000 -0.300000
vn -1.0000 0.0000 0.0000
vn 0.0000 0.0000 -1.0000
vn 1.0000 0.0000 0.0000
vn 0.0000 0.0000 1.0000
vn 0.0000 -1.0000 0.0000
vn 0.0000 1.0000 0.0000
usemtl Black_Metal
s off
f 106//73 107//73 109//73 108//73
f 108//74 109//74 113//74 112//74
f 112//75 113//75 111//75 110//75
f 110//76 111//76 107//76 106//76
f 108//77 112//77 110//77 106//77
f 113//78 109//78 107//78 111//78
o Light.005_Cube.025
v 0.250000 3.350000 -0.548878
v 0.250000 3.450000 -0.548878
v 0.250000 3.350000 -0.648878
v 0.250000 3.450000 -0.648878
v 0.450000 3.350000 -0.548878
v 0.450000 3.450000 -0.548878
v 0.450000 3.350000 -0.648878
v 0.450000 3.450000 -0.648878
vn -1.0000 0.0000 0.0000
vn 0.0000 0.0000 -1.0000
vn 1.0000 0.0000 0.0000
vn 0.0000 0.0000 1.0000
vn 0.0000 -1.0000 0.0000
vn 0.0000 1.0000 0.0000
usemtl Material.003
s off
f 114//79 115//79 117//79 116//79
f 116//80 117//80 121//80 120//80
f 120//81 121//81 119//81 118//81
f 118//82 119//82 115//82 114//82
f 116//83 120//83 118//83 114//83
f 121//84 117//84 115//84 119//84
o Server.004_Server.005
v -0.399902 2.600000 0.750000
v -0.399902 3.000000 0.750000
v -0.399902 2.600000 -0.750000
v -0.399902 3.000000 -0.750000
v 0.399903 2.600000 0.750000
v 0.399903 3.000000 0.750000
v 0.399903 2.600000 -0.750000
v 0.399903 3.000000 -0.750000
vn -1.0000 0.0000 0.0000
vn 0.0000 0.0000 -1.0000
vn 1.0000 0.0000 0.0000
vn 0.0000 0.0000 1.0000
vn 0.0000 -1.0000 0.0000
vn 0.0000 1.0000 0.0000
usemtl Material.002
s off
f 122//85 123//85 125//85 124//85
f 124//86 125//86 129//86 128//86
f 128//87 129//87 127//87 126//87
f 126//88 127//88 123//88 122//88
f 124//89 128//89 126//89 122//89
f 129//90 125//90 123//90 127//90
o Light.004_Cube.024
v 0.250000 2.750000 -0.548878
v 0.250000 2.850000 -0.548878
v 0.250000 2.750000 -0.648878
v 0.250000 2.850000 -0.648878
v 0.450000 2.750000 -0.548878
v 0.450000 2.850000 -0.548878
v 0.450000 2.750000 -0.648878
v 0.450000 2.850000 -0.648878
vn -1.0000 0.0000 0.0000
vn 0.0000 0.0000 -1.0000
vn 1.0000 0.0000 0.0000
vn 0.0000 0.0000 1.0000
vn 0.0000 -1.0000 0.0000
vn 0.0000 1.0000 0.0000
usemtl Material.003
s off
f 130//91 131//91 133//91 132//91
f 132//92 133//92 137//92 136//92
f 136//93 137//93 135//93 134//93
f 134//94 135//94 131//94 130//94
f 132//95 136//95 134//95 130//95
f 137//96 133//96 131//96 135//96
o Drive.004_Cube.023
v 0.250000 2.750000 0.300000
v 0.250000 2.850000 0.300000
v 0.250000 2.750000 -0.300000
v 0.250000 2.850000 -0.300000
v 0.450000 2.750000 0.300000
v 0.450000 2.850000 0.300000
v 0.450000 2.750000 -0.300000
v 0.450000 2.850000 -0.300000
vn -1.0000 0.0000 0.0000
vn 0.0000 0.0000 -1.0000
vn 1.0000 0.0000 0.0000
vn 0.0000 0.0000 1.0000
vn 0.0000 -1.0000 0.0000
vn 0.0000 1.0000 0.0000
usemtl Black_Metal
s off
f 138//97 139//97 141//97 140//97
f 140//98 141//98 145//98 144//98
f 144//99 145//99 143//99 142//99
f 142//100 143//100 139//100 138//100
f 140//101 144//101 142//101 138//101
f 145//102 141//102 139//102 143//102
o Server.003
v -0.399902 2.000000 0.750000
v -0.399902 2.400000 0.750000
v -0.399902 2.000000 -0.750000
v -0.399902 2.400000 -0.750000
v 0.399903 2.000000 0.750000
v 0.399903 2.400000 0.750000
v 0.399903 2.000000 -0.750000
v 0.399903 2.400000 -0.750000
vn -1.0000 0.0000 0.0000
vn 0.0000 0.0000 -1.0000
vn 1.0000 0.0000 0.0000
vn 0.0000 0.0000 1.0000
vn 0.0000 -1.0000 0.0000
vn 0.0000 1.0000 0.0000
usemtl Material.002
s off
f 146//103 147//103 149//103 148//103
f 148//104 149//104 153//104 152//104
f 152//105 153//105 151//105 150//105
f 150//106 151//106 147//106 146//106
f 148//107 152//107 150//107 146//107
f 153//108 149//108 147//108 151//108
o Drive.003_Cube.022
v 0.250000 2.150000 0.300000
v 0.250000 2.250000 0.300000
v 0.250000 2.150000 -0.300000
v 0.250000 2.250000 -0.300000
v 0.450000 2.150000 0.300000
v 0.450000 2.250000 0.300000
v 0.450000 2.150000 -0.300000
v 0.450000 2.250000 -0.300000
vn -1.0000 0.0000 0.0000
vn 0.0000 0.0000 -1.0000
vn 1.0000 0.0000 0.0000
vn 0.0000 0.0000 1.0000
vn 0.0000 -1.0000 0.0000
vn 0.0000 1.0000 0.0000
usemtl Black_Metal
s off
f 154//109 155//109 157//109 156//109
f 156//110 157//110 161//110 160//110
f 160//111 161//111 159//111 158//111
f 158//112 159//112 155//112 154//112
f 156//113 160//113 158//113 154//113
f 161//114 157//114 155//114 159//114
o Light.003_Cube.021
v 0.250000 2.150000 -0.548878
v 0.250000 2.250000 -0.548878
v 0.250000 2.150000 -0.648878
v 0.250000 2.250000 -0.648878
v 0.450000 2.150000 -0.548878
v 0.450000 2.250000 -0.548878
v 0.450000 2.150000 -0.648878
v 0.450000 2.250000 -0.648878
vn -1.0000 0.0000 0.0000
vn 0.0000 0.0000 -1.0000
vn 1.0000 0.0000 0.0000
vn 0.0000 0.0000 1.0000
vn 0.0000 -1.0000 0.0000
vn 0.0000 1.0000 0.0000
usemtl Material.003
s off
f 162//115 163//115 165//115 164//115
f 164//116 165//116 169//116 168//116
f 168//117 169//117 167//117 166//117
f 166//118 167//118 163//118 162//118
f 164//119 168//119 166//119 162//119
f 169//120 165//120 163//120 167//120
o Server.002
v -0.399902 1.400000 0.750000
v -0.399902 1.800000 0.750000
v -0.399902 1.400000 -0.750000
v -0.399902 1.800000 -0.750000
v 0.399903 1.400000 0.750000
v 0.399903 1.800000 0.750000
v 0.399903 1.400000 -0.750000
v 0.399903 1.800000 -0.750000
vn -1.0000 0.0000 0.0000
vn 0.0000 0.0000 -1.0000
vn 1.0000 0.0000 0.0000
vn 0.0000 0.0000 1.0000
vn 0.0000 -1.0000 0.0000
vn 0.0000 1.0000 0.0000
usemtl Material.002
s off
f 170//121 171//121 173//121 172//121
f 172//122 173//122 177//122 176//122
f 176//123 177//123 175//123 174//123
f 174//124 175//124 171//124 170//124
f 172//125 176//125 174//125 170//125
f 177//126 173//126 171//126 175//126
o Light.002_Cube.020
v 0.250000 1.550000 -0.548878
v 0.250000 1.650000 -0.548878
v 0.250000 1.550000 -0.648878
v 0.250000 1.650000 -0.648878
v 0.450000 1.550000 -0.548878
v 0.450000 1.650000 -0.548878
v 0.450000 1.550000 -0.648878
v 0.450000 1.650000 -0.648878
vn -1.0000 0.0000 0.0000
vn 0.0000 0.0000 -1.0000
vn 1.0000 0.0000 0.0000
vn 0.0000 0.0000 1.0000
vn 0.0000 -1.0000 0.0000
vn 0.0000 1.0000 0.0000
usemtl Material.003
s off
f 178//127 179//127 181//127 180//127
f 180//128 181//128 185//128 184//128
f 184//129 185//129 183//129 182//129
f 182//130 183//130 179//130 178//130
f 180//131 184//131 182//131 178//131
f 185//132 181//132 179//132 183//132
o Drive.002_Cube.019
v 0.250000 1.550000 0.300000
v 0.250000 1.650000 0.300000
v 0.250000 1.550000 -0.300000
v 0.250000 1.650000 -0.300000
v 0.450000 1.550000 0.300000
v 0.450000 1.650000 0.300000
v 0.450000 1.550000 -0.300000
v 0.450000 1.650000 -0.300000
vn -1.0000 0.0000 0.0000
vn 0.0000 0.0000 -1.0000
vn 1.0000 0.0000 0.0000
vn 0.0000 0.0000 1.0000
vn 0.0000 -1.0000 0.0000
vn 0.0000 1.0000 0.0000
usemtl Black_Metal
s off
f 186//133 187//133 189//133 188//133
f 188//134 189//134 193//134 192//134
f 192//135 193//135 191//135 190//135
f 190//136 191//136 187//136 186//136
f 188//137 192//137 190//137 186//137
f 193//138 189//138 187//138 191//138
o Server.001
v -0.399902 0.800000 0.750000
v -0.399902 1.200000 0.750000
v -0.399902 0.800000 -0.750000
v -0.399902 1.200000 -0.750000
v 0.399903 0.800000 0.750000
v 0.399903 1.200000 0.750000
v 0.399903 0.800000 -0.750000
v 0.399903 1.200000 -0.750000
vn -1.0000 0.0000 0.0000
vn 0.0000 0.0000 -1.0000
vn 1.0000 0.0000 0.0000
vn 0.0000 0.0000 1.0000
vn 0.0000 -1.0000 0.0000
vn 0.0000 1.0000 0.0000
usemtl Material.002
s off
f 194//139 195//139 197//139 196//139
f 196//140 197//140 201//140 200//140
f 200//141 201//141 199//141 198//141
f 198//142 199//142 195//142 194//142
f 196//143 200//143 198//143 194//143
f 201//144 197//144 195//144 199//144
o Drive.001_Cube.018
v 0.250000 0.950000 0.300000
v 0.250000 1.050000 0.300000
v 0.250000 0.950000 -0.300000
v 0.250000 1.050000 -0.300000
v 0.450000 0.950000 0.300000
v 0.450000 1.050000 0.300000
v 0.450000 0.950000 -0.300000
v 0.450000 1.050000 -0.300000
vn -1.0000 0.0000 0.0000
vn 0.0000 0.0000 -1.0000
vn 1.0000 0.0000 0.0000
vn 0.0000 0.0000 1.0000
vn 0.0000 -1.0000 0.0000
vn 0.0000 1.0000 0.0000
usemtl Black_Metal
s off
f 202//145 203//145 205//145 204//145
f 204//146 205//146 209//146 208//146
f 208//147 209//147 207//147 206//147
f 206//148 207//148 203//148 202//148
f 204//149 208//149 206//149 202//149
f 209//150 205//150 203//150 207//150
o Light.001_Cube.004
v 0.250000 0.950000 -0.548878
v 0.250000 1.050000 -0.548878
v 0.250000 0.950000 -0.648878
v 0.250000 1.050000 -0.648878
v 0.450000 0.950000 -0.548878
v 0.450000 1.050000 -0.548878
v 0.450000 0.950000 -0.648878
v 0.450000 1.050000 -0.648878
vn -1.0000 0.0000 0.0000
vn 0.0000 0.0000 -1.0000
vn 1.0000 0.0000 0.0000
vn 0.0000 0.0000 1.0000
vn 0.0000 -1.0000 0.0000
vn 0.0000 1.0000 0.0000
usemtl Material.003
s off
f 210//151 211//151 213//151 212//151
f 212//152 213//152 217//152 216//152
f 216//153 217//153 215//153 214//153
f 214//154 215//154 211//154 210//154
f 212//155 216//155 214//155 210//155
f 217//156 213//156 211//156 215//156
o Server
v -0.399902 0.200000 0.750000
v -0.399902 0.600000 0.750000
v -0.399902 0.200000 -0.750000
v -0.399902 0.600000 -0.750000
v 0.399903 0.200000 0.750000
v 0.399903 0.600000 0.750000
v 0.399903 0.200000 -0.750000
v 0.399903 0.600000 -0.750000
vn -1.0000 0.0000 0.0000
vn 0.0000 0.0000 -1.0000
vn 1.0000 0.0000 0.0000
vn 0.0000 0.0000 1.0000
vn 0.0000 -1.0000 0.0000
vn 0.0000 1.0000 0.0000
usemtl Material.002
s off
f 218//157 219//157 221//157 220//157
f 220//158 221//158 225//158 224//158
f 224//159 225//159 223//159 222//159
f 222//160 223//160 219//160 218//160
f 220//161 224//161 222//161 218//161
f 225//162 221//162 219//162 223//162
o Light_Cube.017
v 0.250000 0.350000 -0.548878
v 0.250000 0.450000 -0.548878
v 0.250000 0.350000 -0.648878
v 0.250000 0.450000 -0.648878
v 0.450000 0.350000 -0.548878
v 0.450000 0.450000 -0.548878
v 0.450000 0.350000 -0.648878
v 0.450000 0.450000 -0.648878
vn -1.0000 0.0000 0.0000
vn 0.0000 0.0000 -1.0000
vn 1.0000 0.0000 0.0000
vn 0.0000 0.0000 1.0000
vn 0.0000 -1.0000 0.0000
vn 0.0000 1.0000 0.0000
usemtl Material.003
s off
f 226//163 227//163 229//163 228//163
f 228//164 229//164 233//164 232//164
f 232//165 233//165 231//165 230//165
f 230//166 231//166 227//166 226//166
f 228//167 232//167 230//167 226//167
f 233//168 229//168 227//168 231//168
o Drive_Cube.016
v 0.250000 0.350000 0.300000
v 0.250000 0.450000 0.300000
v 0.250000 0.350000 -0.300000
v 0.250000 0.450000 -0.300000
v 0.450000 0.350000 0.300000
v 0.450000 0.450000 0.300000
v 0.450000 0.350000 -0.300000
v 0.450000 0.450000 -0.300000
vn -1.0000 0.0000 0.0000
vn 0.0000 0.0000 -1.0000
vn 1.0000 0.0000 0.0000
vn 0.0000 0.0000 1.0000
vn 0.0000 -1.0000 0.0000
vn 0.0000 1.0000 0.0000
usemtl Black_Metal
s off
f 234//169 235//169 237//169 236//169
f 236//170 237//170 241//170 240//170
f 240//171 241//171 239//171 238//171
f 238//172 239//172 235//172 234//172
f 236//173 240//173 238//173 234//173
f 241//174 237//174 235//174 239//174
