# Blender v2.79 (sub 0) OBJ File: ''
# www.blender.org
mtllib serverrackShell.mtl
o Light.003_Cube.021
v 0.250000 2.150000 -0.548878
v 0.250000 2.250000 -0.548878
v 0.250000 2.250000 -0.648878
v 0.250000 2.150000 -0.648878
v 0.450000 2.250000 -0.648878
v 0.450000 2.150000 -0.648878
v 0.450000 2.250000 -0.548878
v 0.450000 2.150000 -0.548878
vn -1.0000 0.0000 0.0000
vn 0.0000 0.0000 -1.0000
vn 1.0000 0.0000 0.0000
vn 0.0000 0.0000 1.0000
vn 0.0000 -1.0000 0.0000
vn 0.0000 1.0000 0.0000
usemtl Material.003
s 1
f 1//1 2//1 3//1 4//1
f 4//2 3//2 5//2 6//2
f 6//3 5//3 7//3 8//3
f 8//4 7//4 2//4 1//4
f 4//5 6//5 8//5 1//5
f 5//6 3//6 2//6 7//6
o Server.002
v -0.399902 1.400000 0.750000
v -0.399902 1.800000 0.750000
v -0.399902 1.800000 -0.750000
v -0.399902 1.400000 -0.750000
v 0.399903 1.800000 -0.750000
v 0.399903 1.400000 -0.750000
v 0.399903 1.800000 0.750000
v 0.399903 1.400000 0.750000
vn -1.0000 -0.0000 0.0000
vn 0.0000 0.0000 -1.0000
vn 1.0000 0.0000 0.0000
vn 0.0000 -0.0000 1.0000
vn 0.0000 -1.0000 -0.0000
vn 0.0000 1.0000 0.0000
usemtl Material.002
s 1
f 9//7 10//7 11//7 12//7
f 12//8 11//8 13//8 14//8
f 14//9 13//9 15//9 16//9
f 16//10 15//10 10//10 9//10
f 12//11 14//11 16//11 9//11
f 13//12 11//12 10//12 15//12
o Drive.004_Cube.023
v 0.250000 3.350000 0.300000
v 0.250000 3.450000 0.300000
v 0.250000 3.450000 -0.300000
v 0.250000 3.350000 -0.300000
v 0.450000 3.450000 -0.300000
v 0.450000 3.350000 -0.300000
v 0.450000 3.450000 0.300000
v 0.450000 3.350000 0.300000
vn -1.0000 0.0000 0.0000
vn 0.0000 0.0000 -1.0000
vn 1.0000 0.0000 0.0000
vn 0.0000 -0.0000 1.0000
vn 0.0000 -1.0000 0.0000
vn 0.0000 1.0000 0.0000
usemtl Black_Metal
s 1
f 17//13 18//13 19//13 20//13
f 20//14 19//14 21//14 22//14
f 22//15 21//15 23//15 24//15
f 24//16 23//16 18//16 17//16
f 20//17 22//17 24//17 17//17
f 21//18 19//18 18//18 23//18
o Light_Cube.017
v 0.250000 0.350000 -0.548878
v 0.250000 0.450000 -0.548878
v 0.250000 0.450000 -0.648878
v 0.250000 0.350000 -0.648878
v 0.450000 0.450000 -0.648878
v 0.450000 0.350000 -0.648878
v 0.450000 0.450000 -0.548878
v 0.450000 0.350000 -0.548878
vn -1.0000 0.0000 0.0000
vn 0.0000 0.0000 -1.0000
vn 1.0000 0.0000 0.0000
vn 0.0000 0.0000 1.0000
vn 0.0000 -1.0000 0.0000
vn 0.0000 1.0000 0.0000
usemtl Material.003
s 1
f 25//19 26//19 27//19 28//19
f 28//20 27//20 29//20 30//20
f 30//21 29//21 31//21 32//21
f 32//22 31//22 26//22 25//22
f 28//23 30//23 32//23 25//23
f 29//24 27//24 26//24 31//24
o Light.007_Cube.029
v 0.250000 4.550000 -0.548877
v 0.250000 4.650000 -0.548877
v 0.250000 4.650000 -0.648877
v 0.250000 4.550000 -0.648877
v 0.450000 4.650000 -0.648877
v 0.450000 4.550000 -0.648877
v 0.450000 4.650000 -0.548877
v 0.450000 4.550000 -0.548877
vn -1.0000 0.0000 0.0000
vn 0.0000 0.0000 -1.0000
vn 1.0000 0.0000 0.0000
vn 0.0000 -0.0000 1.0000
vn 0.0000 -1.0000 0.0000
vn 0.0000 1.0000 0.0000
usemtl Material.003
s 1
f 33//25 34//25 35//25 36//25
f 36//26 35//26 37//26 38//26
f 38//27 37//27 39//27 40//27
f 40//28 39//28 34//28 33//28
f 36//29 38//29 40//29 33//29
f 37//30 35//30 34//30 39//30
o Light.008_Cube.032
v 0.250000 5.150000 -0.548877
v 0.250000 5.250000 -0.548877
v 0.250000 5.250000 -0.648877
v 0.250000 5.150000 -0.648877
v 0.450000 5.250000 -0.648877
v 0.450000 5.150000 -0.648877
v 0.450000 5.250000 -0.548877
v 0.450000 5.150000 -0.548877
vn -1.0000 0.0000 0.0000
vn 0.0000 0.0000 -1.0000
vn 1.0000 0.0000 0.0000
vn 0.0000 0.0000 1.0000
vn 0.0000 -1.0000 0.0000
vn 0.0000 1.0000 0.0000
usemtl Material.003
s 1
f 41//31 42//31 43//31 44//31
f 44//32 43//32 45//32 46//32
f 46//33 45//33 47//33 48//33
f 48//34 47//34 42//34 41//34
f 44//35 46//35 48//35 41//35
f 45//36 43//36 42//36 47//36
o Rack_Cube.001
v -0.400000 0.200000 0.800000
v -0.400000 0.200000 -0.800000
v -0.400000 5.800000 -0.799999
v -0.400000 5.800000 0.800001
v 1.000000 0.200000 -0.800000
v 1.000000 5.800000 -0.799999
v 1.000000 0.200000 0.800000
v -1.000000 -0.000000 1.000000
v -1.000000 6.000000 1.000001
v -1.000000 6.000000 -0.999999
v -1.000000 0.000000 -1.000000
v 1.000000 6.000000 -0.999999
v 1.000000 0.000000 -1.000000
v 1.000000 5.400000 0.800001
v 1.000000 6.000000 1.000001
v 1.000000 -0.000000 1.000000
v 1.000000 5.800000 0.800001
vn 1.0000 0.0000 0.0000
vn 0.0000 -0.0000 1.0000
vn 0.0000 1.0000 0.0000
vn -1.0000 0.0000 0.0000
vn 0.0000 0.0000 -1.0000
vn 0.0000 -1.0000 -0.0000
usemtl Black_Metal
s 1
f 49//37 50//37 51//37 52//37
f 50//38 53//38 54//38 51//38
f 50//39 49//39 55//39 53//39
f 56//40 57//40 58//40 59//40
f 59//41 58//41 60//41 61//41
f 61//37 60//37 54//37 53//37 55//37 62//37 63//37 64//37
f 64//38 63//38 57//38 56//38
f 59//42 61//42 64//42 56//42
f 60//39 58//39 57//39 63//39
f 63//37 62//37 65//37 54//37 60//37
f 55//41 49//41 52//41 65//41 62//41
f 65//42 52//42 51//42 54//42
o Drive.001_Cube.018
v 0.250000 0.950000 0.300000
v 0.250000 1.050000 0.300000
v 0.250000 1.050000 -0.300000
v 0.250000 0.950000 -0.300000
v 0.450000 1.050000 -0.300000
v 0.450000 0.950000 -0.300000
v 0.450000 1.050000 0.300000
v 0.450000 0.950000 0.300000
vn -1.0000 0.0000 0.0000
vn 0.0000 0.0000 -1.0000
vn 1.0000 0.0000 0.0000
vn 0.0000 -0.0000 1.0000
vn 0.0000 -1.0000 -0.0000
vn 0.0000 1.0000 0.0000
usemtl Black_Metal
s 1
f 66//43 67//43 68//43 69//43
f 69//44 68//44 70//44 71//44
f 71//45 70//45 72//45 73//45
f 73//46 72//46 67//46 66//46
f 69//47 71//47 73//47 66//47
f 70//48 68//48 67//48 72//48
o Server.001
v -0.399902 0.800000 0.750000
v -0.399902 1.200000 0.750000
v -0.399902 1.200000 -0.750000
v -0.399902 0.800000 -0.750000
v 0.399903 1.200000 -0.750000
v 0.399903 0.800000 -0.750000
v 0.399903 1.200000 0.750000
v 0.399903 0.800000 0.750000
vn -1.0000 -0.0000 0.0000
vn 0.0000 0.0000 -1.0000
vn 1.0000 0.0000 0.0000
vn 0.0000 -0.0000 1.0000
vn 0.0000 -1.0000 -0.0000
vn 0.0000 1.0000 0.0000
usemtl Material.002
s 1
f 74//49 75//49 76//49 77//49
f 77//50 76//50 78//50 79//50
f 79//51 78//51 80//51 81//51
f 81//52 80//52 75//52 74//52
f 77//53 79//53 81//53 74//53
f 78//54 76//54 75//54 80//54
o Drive.008_Cube.031
v 0.250000 5.150000 0.300001
v 0.250000 5.250000 0.300001
v 0.250000 5.250000 -0.299999
v 0.250000 5.150000 -0.299999
v 0.450000 5.250000 -0.299999
v 0.450000 5.150000 -0.299999
v 0.450000 5.250000 0.300001
v 0.450000 5.150000 0.300001
vn -1.0000 0.0000 0.0000
vn 0.0000 0.0000 -1.0000
vn 1.0000 0.0000 0.0000
vn 0.0000 -0.0000 1.0000
vn 0.0000 -1.0000 0.0000
vn 0.0000 1.0000 0.0000
usemtl Black_Metal
s 1
f 82//55 83//55 84//55 85//55
f 85//56 84//56 86//56 87//56
f 87//57 86//57 88//57 89//57
f 89//58 88//58 83//58 82//58
f 85//59 87//59 89//59 82//59
f 86//60 84//60 83//60 88//60
o Server
v -0.399902 0.200000 0.750000
v -0.399902 0.600000 0.750000
v -0.399902 0.600000 -0.750000
v -0.399902 0.200000 -0.750000
v 0.399903 0.600000 -0.750000
v 0.399903 0.200000 -0.750000
v 0.399903 0.600000 0.750000
v 0.399903 0.200000 0.750000
vn -1.0000 -0.0000 0.0000
vn 0.0000 0.0000 -1.0000
vn 1.0000 0.0000 0.0000
vn 0.0000 -0.0000 1.0000
vn 0.0000 -1.0000 -0.0000
vn 0.0000 1.0000 0.0000
usemtl Material.002
s 1
f 90//61 91//61 92//61 93//61
f 93//62 92//62 94//62 95//62
f 95//63 94//63 96//63 97//63
f 97//64 96//64 91//64 90//64
f 93//65 95//65 97//65 90//65
f 94//66 92//66 91//66 96//66
o Server.008_Server.009
v -0.399902 5.000000 0.750001
v -0.399902 5.400000 0.750001
v -0.399902 5.400000 -0.749999
v -0.399902 5.000000 -0.749999
v 0.399903 5.400000 -0.749999
v 0.399903 5.000000 -0.749999
v 0.399903 5.400000 0.750001
v 0.399903 5.000000 0.750001
vn -1.0000 -0.0000 0.0000
vn 0.0000 0.0000 -1.0000
vn 1.0000 0.0000 0.0000
vn 0.0000 -0.0000 1.0000
vn 0.0000 -1.0000 0.0000
vn 0.0000 1.0000 0.0000
usemtl Material.002
s 1
f 98//67 99//67 100//67 101//67
f 101//68 100//68 102//68 103//68
f 103//69 102//69 104//69 105//69
f 105//70 104//70 99//70 98//70
f 101//71 103//71 105//71 98//71
f 102//72 100//72 99//72 104//72
o Drive_Cube.016
v 0.250000 0.350000 0.300000
v 0.250000 0.450000 0.300000
v 0.250000 0.450000 -0.300000
v 0.250000 0.350000 -0.300000
v 0.450000 0.450000 -0.300000
v 0.450000 0.350000 -0.300000
v 0.450000 0.450000 0.300000
v 0.450000 0.350000 0.300000
vn -1.0000 0.0000 0.0000
vn 0.0000 0.0000 -1.0000
vn 1.0000 0.0000 0.0000
vn 0.0000 0.0000 1.0000
vn 0.0000 -1.0000 -0.0000
vn 0.0000 1.0000 0.0000
usemtl Black_Metal
s 1
f 106//73 107//73 108//73 109//73
f 109//74 108//74 110//74 111//74
f 111//75 110//75 112//75 113//75
f 113//76 112//76 107//76 106//76
f 109//77 111//77 113//77 106//77
f 110//78 108//78 107//78 112//78
o Drive.006_Cube.027
v 0.250000 0.350000 0.300000
v 0.250000 0.450000 0.300000
v 0.250000 0.450000 -0.300000
v 0.250000 0.350000 -0.300000
v 0.450000 0.450000 -0.300000
v 0.450000 0.350000 -0.300000
v 0.450000 0.450000 0.300000
v 0.450000 0.350000 0.300000
vn -1.0000 0.0000 0.0000
vn 0.0000 0.0000 -1.0000
vn 1.0000 0.0000 0.0000
vn 0.0000 0.0000 1.0000
vn 0.0000 -1.0000 -0.0000
vn 0.0000 1.0000 0.0000
usemtl Black_Metal
s 1
f 114//79 115//79 116//79 117//79
f 117//80 116//80 118//80 119//80
f 119//81 118//81 120//81 121//81
f 121//82 120//82 115//82 114//82
f 117//83 119//83 121//83 114//83
f 118//84 116//84 115//84 120//84
o Light.006_Cube.028
v 0.250000 0.350000 -0.548878
v 0.250000 0.450000 -0.548878
v 0.250000 0.450000 -0.648878
v 0.250000 0.350000 -0.648878
v 0.450000 0.450000 -0.648878
v 0.450000 0.350000 -0.648878
v 0.450000 0.450000 -0.548878
v 0.450000 0.350000 -0.548878
vn -1.0000 0.0000 0.0000
vn 0.0000 0.0000 -1.0000
vn 1.0000 0.0000 0.0000
vn 0.0000 0.0000 1.0000
vn 0.0000 -1.0000 0.0000
vn 0.0000 1.0000 0.0000
usemtl Material.003
s 1
f 122//85 123//85 124//85 125//85
f 125//86 124//86 126//86 127//86
f 127//87 126//87 128//87 129//87
f 129//88 128//88 123//88 122//88
f 125//89 127//89 129//89 122//89
f 126//90 124//90 123//90 128//90
o Drive.007_Cube.030
v 0.250000 4.550000 0.300001
v 0.250000 4.650000 0.300001
v 0.250000 4.650000 -0.299999
v 0.250000 4.550000 -0.299999
v 0.450000 4.650000 -0.299999
v 0.450000 4.550000 -0.299999
v 0.450000 4.650000 0.300001
v 0.450000 4.550000 0.300001
vn -1.0000 0.0000 0.0000
vn 0.0000 0.0000 -1.0000
vn 1.0000 0.0000 0.0000
vn 0.0000 0.0000 1.0000
vn 0.0000 -1.0000 0.0000
vn 0.0000 1.0000 0.0000
usemtl Black_Metal
s 1
f 130//91 131//91 132//91 133//91
f 133//92 132//92 134//92 135//92
f 135//93 134//93 136//93 137//93
f 137//94 136//94 131//94 130//94
f 133//95 135//95 137//95 130//95
f 134//96 132//96 131//96 136//96
o Drive.005_Cube.026
v 0.250000 3.950000 0.300001
v 0.250000 4.050000 0.300001
v 0.250000 4.050000 -0.299999
v 0.250000 3.950000 -0.299999
v 0.450000 4.050000 -0.299999
v 0.450000 3.950000 -0.299999
v 0.450000 4.050000 0.300001
v 0.450000 3.950000 0.300001
vn -1.0000 0.0000 0.0000
vn 0.0000 0.0000 -1.0000
vn 1.0000 0.0000 0.0000
vn 0.0000 -0.0000 1.0000
vn 0.0000 -1.0000 0.0000
vn 0.0000 1.0000 0.0000
usemtl Black_Metal
s 1
f 138//97 139//97 140//97 141//97
f 141//98 140//98 142//98 143//98
f 143//99 142//99 144//99 145//99
f 145//100 144//100 139//100 138//100
f 141//101 143//101 145//101 138//101
f 142//102 140//102 139//102 144//102
o Server.005_Server.006
v -0.399902 3.800000 0.750001
v -0.399902 4.200000 0.750001
v -0.399902 4.200000 -0.749999
v -0.399902 3.800000 -0.749999
v 0.399903 4.200000 -0.749999
v 0.399903 3.800000 -0.749999
v 0.399903 4.200000 0.750001
v 0.399903 3.800000 0.750001
vn -1.0000 -0.0000 0.0000
vn 0.0000 0.0000 -1.0000
vn 1.0000 0.0000 0.0000
vn 0.0000 -0.0000 1.0000
vn 0.0000 -1.0000 -0.0000
vn 0.0000 1.0000 0.0000
usemtl Material.002
s 1
f 146//103 147//103 148//103 149//103
f 149//104 148//104 150//104 151//104
f 151//105 150//105 152//105 153//105
f 153//106 152//106 147//106 146//106
f 149//107 151//107 153//107 146//107
f 150//108 148//108 147//108 152//108
o Light.005_Cube.025
v 0.250000 3.950000 -0.548877
v 0.250000 4.050000 -0.548877
v 0.250000 4.050000 -0.648877
v 0.250000 3.950000 -0.648877
v 0.450000 4.050000 -0.648877
v 0.450000 3.950000 -0.648877
v 0.450000 4.050000 -0.548877
v 0.450000 3.950000 -0.548877
vn -1.0000 0.0000 0.0000
vn 0.0000 0.0000 -1.0000
vn 1.0000 0.0000 0.0000
vn 0.0000 0.0000 1.0000
vn 0.0000 -1.0000 0.0000
vn 0.0000 1.0000 0.0000
usemtl Material.003
s 1
f 154//109 155//109 156//109 157//109
f 157//110 156//110 158//110 159//110
f 159//111 158//111 160//111 161//111
f 161//112 160//112 155//112 154//112
f 157//113 159//113 161//113 154//113
f 158//114 156//114 155//114 160//114
o Light.001_Cube.004
v 0.250000 0.950000 -0.548878
v 0.250000 1.050000 -0.548878
v 0.250000 1.050000 -0.648878
v 0.250000 0.950000 -0.648878
v 0.450000 1.050000 -0.648878
v 0.450000 0.950000 -0.648878
v 0.450000 1.050000 -0.548878
v 0.450000 0.950000 -0.548878
vn -1.0000 0.0000 0.0000
vn 0.0000 0.0000 -1.0000
vn 1.0000 0.0000 0.0000
vn 0.0000 0.0000 1.0000
vn 0.0000 -1.0000 0.0000
vn 0.0000 1.0000 0.0000
usemtl Material.003
s 1
f 162//115 163//115 164//115 165//115
f 165//116 164//116 166//116 167//116
f 167//117 166//117 168//117 169//117
f 169//118 168//118 163//118 162//118
f 165//119 167//119 169//119 162//119
f 166//120 164//120 163//120 168//120
o Server.007_Server.008
v -0.399902 4.400000 0.750001
v -0.399902 4.800000 0.750001
v -0.399902 4.800000 -0.749999
v -0.399902 4.400000 -0.749999
v 0.399903 4.800000 -0.749999
v 0.399903 4.400000 -0.749999
v 0.399903 4.800000 0.750001
v 0.399903 4.400000 0.750001
vn -1.0000 -0.0000 0.0000
vn 0.0000 0.0000 -1.0000
vn 1.0000 0.0000 0.0000
vn 0.0000 -0.0000 1.0000
vn 0.0000 -1.0000 0.0000
vn 0.0000 1.0000 0.0000
usemtl Material.002
s 1
f 170//121 171//121 172//121 173//121
f 173//122 172//122 174//122 175//122
f 175//123 174//123 176//123 177//123
f 177//124 176//124 171//124 170//124
f 173//125 175//125 177//125 170//125
f 174//126 172//126 171//126 176//126
o Drive.002_Cube.019
v 0.250000 1.550000 0.300000
v 0.250000 1.650000 0.300000
v 0.250000 1.650000 -0.300000
v 0.250000 1.550000 -0.300000
v 0.450000 1.650000 -0.300000
v 0.450000 1.550000 -0.300000
v 0.450000 1.650000 0.300000
v 0.450000 1.550000 0.300000
vn -1.0000 0.0000 0.0000
vn 0.0000 0.0000 -1.0000
vn 1.0000 0.0000 0.0000
vn 0.0000 -0.0000 1.0000
vn 0.0000 -1.0000 0.0000
vn 0.0000 1.0000 0.0000
usemtl Black_Metal
s 1
f 178//127 179//127 180//127 181//127
f 181//128 180//128 182//128 183//128
f 183//129 182//129 184//129 185//129
f 185//130 184//130 179//130 178//130
f 181//131 183//131 185//131 178//131
f 182//132 180//132 179//132 184//132
o Light.004_Cube.024
v 0.250000 3.350000 -0.548878
v 0.250000 3.450000 -0.548878
v 0.250000 3.450000 -0.648878
v 0.250000 3.350000 -0.648878
v 0.450000 3.450000 -0.648878
v 0.450000 3.350000 -0.648878
v 0.450000 3.450000 -0.548878
v 0.450000 3.350000 -0.548878
vn -1.0000 0.0000 0.0000
vn 0.0000 0.0000 -1.0000
vn 1.0000 0.0000 0.0000
vn 0.0000 0.0000 1.0000
vn 0.0000 -1.0000 0.0000
vn 0.0000 1.0000 0.0000
usemtl Material.003
s 1
f 186//133 187//133 188//133 189//133
f 189//134 188//134 190//134 191//134
f 191//135 190//135 192//135 193//135
f 193//136 192//136 187//136 186//136
f 189//137 191//137 193//137 186//137
f 190//138 188//138 187//138 192//138
o Server.004_Server.005
v -0.399902 3.200000 0.750000
v -0.399902 3.600000 0.750000
v -0.399902 3.600000 -0.750000
v -0.399902 3.200000 -0.750000
v 0.399903 3.600000 -0.750000
v 0.399903 3.200000 -0.750000
v 0.399903 3.600000 0.750000
v 0.399903 3.200000 0.750000
vn -1.0000 -0.0000 0.0000
vn 0.0000 0.0000 -1.0000
vn 1.0000 0.0000 0.0000
vn 0.0000 -0.0000 1.0000
vn 0.0000 -1.0000 -0.0000
vn 0.0000 1.0000 0.0000
usemtl Material.002
s 1
f 194//139 195//139 196//139 197//139
f 197//140 196//140 198//140 199//140
f 199//141 198//141 200//141 201//141
f 201//142 200//142 195//142 194//142
f 197//143 199//143 201//143 194//143
f 198//144 196//144 195//144 200//144
o Light.002_Cube.020
v 0.250000 1.550000 -0.548878
v 0.250000 1.650000 -0.548878
v 0.250000 1.650000 -0.648878
v 0.250000 1.550000 -0.648878
v 0.450000 1.650000 -0.648878
v 0.450000 1.550000 -0.648878
v 0.450000 1.650000 -0.548878
v 0.450000 1.550000 -0.548878
vn -1.0000 0.0000 0.0000
vn 0.0000 0.0000 -1.0000
vn 1.0000 0.0000 0.0000
vn 0.0000 -0.0000 1.0000
vn 0.0000 -1.0000 0.0000
vn 0.0000 1.0000 0.0000
usemtl Material.003
s 1
f 202//145 203//145 204//145 205//145
f 205//146 204//146 206//146 207//146
f 207//147 206//147 208//147 209//147
f 209//148 208//148 203//148 202//148
f 205//149 207//149 209//149 202//149
f 206//150 204//150 203//150 208//150
o Drive.003_Cube.022
v 0.250000 2.150000 0.300000
v 0.250000 2.250000 0.300000
v 0.250000 2.250000 -0.300000
v 0.250000 2.150000 -0.300000
v 0.450000 2.250000 -0.300000
v 0.450000 2.150000 -0.300000
v 0.450000 2.250000 0.300000
v 0.450000 2.150000 0.300000
vn -1.0000 0.0000 0.0000
vn 0.0000 0.0000 -1.0000
vn 1.0000 0.0000 0.0000
vn 0.0000 0.0000 1.0000
vn 0.0000 -1.0000 0.0000
vn 0.0000 1.0000 0.0000
usemtl Black_Metal
s 1
f 210//151 211//151 212//151 213//151
f 213//152 212//152 214//152 215//152
f 215//153 214//153 216//153 217//153
f 217//154 216//154 211//154 210//154
f 213//155 215//155 217//155 210//155
f 214//156 212//156 211//156 216//156
o Server.003
v -0.399902 2.000000 0.750000
v -0.399902 2.400000 0.750000
v -0.399902 2.400000 -0.750000
v -0.399902 2.000000 -0.750000
v 0.399903 2.400000 -0.750000
v 0.399903 2.000000 -0.750000
v 0.399903 2.400000 0.750000
v 0.399903 2.000000 0.750000
vn -1.0000 0.0000 0.0000
vn 0.0000 0.0000 -1.0000
vn 1.0000 -0.0000 0.0000
vn 0.0000 -0.0000 1.0000
vn 0.0000 -1.0000 -0.0000
vn 0.0000 1.0000 0.0000
usemtl Material.002
s 1
f 218//157 219//157 220//157 221//157
f 221//158 220//158 222//158 223//158
f 223//159 222//159 224//159 225//159
f 225//160 224//160 219//160 218//160
f 221//161 223//161 225//161 218//161
f 222//162 220//162 219//162 224//162
